<?xml version="1.0" standalone="no"?>
<!DOCTYPE svg PUBLIC "-//W3C//DTD SVG 20010904//EN"
 "http://www.w3.org/TR/2001/REC-SVG-20010904/DTD/svg10.dtd">
<svg version="1.0" xmlns="http://www.w3.org/2000/svg"
 width="1024.000000pt" height="1024.000000pt" viewBox="0 0 1024.000000 1024.000000"
 preserveAspectRatio="xMidYMid meet">

<g transform="translate(0.000000,1024.000000) scale(0.100000,-0.100000)"
fill="#000000" stroke="none">
<path d="M4810 9654 c-485 -59 -883 -191 -1266 -421 -659 -396 -1137 -1038
-1324 -1778 -71 -280 -85 -399 -85 -740 0 -283 2 -309 28 -455 73 -416 205
-781 467 -1295 195 -383 372 -680 1072 -1805 352 -566 628 -1033 813 -1375
166 -307 447 -877 555 -1125 17 -41 38 -81 44 -88 10 -10 32 31 107 200 122
276 401 832 564 1123 227 408 351 616 912 1525 740 1200 987 1646 1181 2135
327 823 322 1618 -15 2370 -217 483 -574 908 -1023 1217 -360 248 -796 420
-1245 490 -106 17 -187 21 -440 23 -170 2 -326 1 -345 -1z m700 -1629 c377
-58 667 -259 822 -570 81 -162 113 -316 106 -507 -17 -409 -274 -794 -632
-945 -175 -74 -255 -83 -717 -83 l-389 0 0 -535 0 -535 -320 0 -320 0 0 1595
0 1595 678 0 c543 0 696 -3 772 -15z"/>
<path d="M4700 6975 l0 -495 334 0 c183 0 357 5 386 10 214 41 350 222 350
467 0 156 -40 265 -135 370 -63 70 -145 116 -234 133 -29 5 -199 10 -377 10
l-324 0 0 -495z"/>
</g>
</svg>
